# Blender v2.83.4 OBJ File: ''
# www.blender.org
mtllib AmmoCrate.mtl
o ammo_box
v 0.675177 -0.475874 0.405861
v 0.675177 -0.024126 0.405861
v -0.675178 -0.024126 0.405861
v -0.675178 -0.475874 0.405861
v 0.675177 -0.475874 -0.405861
v 0.675177 -0.024126 -0.405861
v -0.675178 -0.475874 -0.405861
v -0.675178 -0.024126 -0.405861
vt 0.481204 0.454615
vt 0.481204 0.545385
vt 0.209877 0.545385
vt 0.209877 0.454615
vt 0.642842 0.454615
vt 0.642842 0.545385
vt 0.479743 0.545385
vt 0.479743 0.454615
vt 0.914170 0.454615
vt 0.914170 0.545385
vt 0.208416 0.454615
vt 0.208416 0.545385
vt 0.045317 0.545385
vt 0.045317 0.454615
vt 0.479743 0.708484
vt 0.208416 0.708484
vt 0.479743 0.291516
vt 0.208416 0.291516
vn 0.0000 -0.0000 1.0000
vn 1.0000 -0.0000 0.0000
vn 0.0000 0.0000 -1.0000
vn -1.0000 0.0000 0.0000
vn 0.0000 1.0000 0.0000
vn 0.0000 -1.0000 -0.0000
usemtl Mat
s off
f 1/1/1 2/2/1 3/3/1 4/4/1
f 5/5/2 6/6/2 2/7/2 1/8/2
f 7/9/3 8/10/3 6/6/3 5/5/3
f 4/11/4 3/12/4 8/13/4 7/14/4
f 2/7/5 6/15/5 8/16/5 3/12/5
f 5/17/6 1/8/6 4/11/6 7/18/6
