# This file uses centimeters as units for non-parametric coordinates.

mtllib crawler.mtl
g default
v -0.463751 -1.204299 0.463751
v 0.463751 -1.204299 0.463751
v -0.463751 -1.204299 -0.463751
v 0.463751 -1.204299 -0.463751
v -0.463751 -0.276797 0.463751
v 0.463751 -0.276797 0.463751
v -0.463751 -0.276797 -0.463751
v 0.463751 -0.276797 -0.463751
v -0.347813 -1.088361 -0.463751
v 0.347813 -1.088361 -0.463751
v -0.347813 -1.088361 -1.159378
v 0.347813 -1.088361 -1.159378
v -0.347813 -0.392735 -0.463751
v 0.347813 -0.392735 -0.463751
v -0.347813 -0.392735 -1.159378
v 0.347813 -0.392735 -1.159378
v -0.579689 -1.204299 -1.159378
v 0.579689 -1.204299 -1.159378
v -0.579689 -1.204299 -2.550631
v 0.579689 -1.204299 -2.550631
v -0.579689 -0.276797 -1.159378
v 0.579689 -0.276797 -1.159378
v -0.579689 -0.276797 -2.550631
v 0.579689 -0.276797 -2.550631
v 0.362600 -0.762460 -0.747772
v 1.519578 -1.357993 -1.904750
v 0.256180 -0.660717 -0.906563
v 1.413158 -1.256250 -2.063541
v 0.484514 -0.586237 -0.716566
v 1.641492 -1.181770 -1.873544
v 0.378093 -0.484495 -0.875357
v 1.535072 -1.080028 -2.032335
v 0.332116 -0.761112 -0.760690
v 1.912578 -1.356645 -1.184174
v 0.319473 -0.660356 -0.949567
v 1.899934 -1.255889 -1.373051
v 0.421221 -0.586598 -0.673561
v 2.001683 -1.182131 -1.097045
v 0.408577 -0.485842 -0.862439
v 1.989039 -1.081375 -1.285922
v 0.307851 -0.753676 -0.761422
v 1.888312 -1.349209 -0.337938
v 0.384863 -0.684190 -0.951118
v 1.965324 -1.279723 -0.527634
v 0.355831 -0.562764 -0.672011
v 1.936292 -1.158297 -0.248528
v 0.432843 -0.493278 -0.861707
v 2.013304 -1.088811 -0.438224
v 0.291146 -0.753687 -0.799387
v 1.448124 -1.349220 0.357591
v 0.452701 -0.684195 -0.925172
v 1.609679 -1.279728 0.231806
v 0.287992 -0.562759 -0.697957
v 1.444970 -1.158292 0.459021
v 0.449548 -0.493268 -0.823742
v 1.606526 -1.088801 0.333235
v -0.268613 -0.753687 -0.799387
v -1.425591 -1.349220 0.357591
v -0.430168 -0.684195 -0.925172
v -1.587146 -1.279728 0.231806
v -0.265459 -0.562759 -0.697957
v -1.422437 -1.158292 0.459021
v -0.427014 -0.493268 -0.823742
v -1.583992 -1.088801 0.333236
v -0.309583 -0.761112 -0.760690
v -1.890045 -1.356645 -1.184174
v -0.296939 -0.660356 -0.949567
v -1.877401 -1.255889 -1.373051
v -0.398688 -0.586598 -0.673561
v -1.979149 -1.182131 -1.097045
v -0.386044 -0.485842 -0.862439
v -1.966506 -1.081375 -1.285922
v -0.340067 -0.762460 -0.747772
v -1.497045 -1.357993 -1.904750
v -0.233646 -0.660717 -0.906563
v -1.390625 -1.256251 -2.063541
v -0.461980 -0.586237 -0.716566
v -1.618958 -1.181770 -1.873544
v -0.355560 -0.484494 -0.875357
v -1.512538 -1.080028 -2.032335
v -0.285317 -0.753676 -0.761422
v -1.865779 -1.349209 -0.337938
v -0.362329 -0.684190 -0.951118
v -1.942791 -1.279723 -0.527634
v -0.333297 -0.562764 -0.672011
v -1.913759 -1.158297 -0.248528
v -0.410309 -0.493278 -0.861707
v -1.990771 -1.088811 -0.438224
vt 0.750000 0.812500
vt 0.750000 0.937500
vt 0.875000 0.937500
vt 0.875000 0.812500
vt 0.625000 0.812500
vt 0.750000 0.812500
vt 0.750000 0.937500
vt 0.625000 0.937500
vt 0.625000 0.687500
vt 0.750000 0.687500
vt 0.750000 0.812500
vt 0.625000 0.812500
vt 0.750000 0.687500
vt 0.875000 0.687500
vt 0.875000 0.812500
vt 0.750000 0.812500
vt 0.875000 0.687500
vt 1.000000 0.687500
vt 1.000000 0.812500
vt 0.875000 0.812500
vt 0.500000 0.687500
vt 0.625000 0.687500
vt 0.625000 0.812500
vt 0.500000 0.812500
vt 0.187500 0.906120
vt 0.187500 1.000000
vt 0.281278 1.000000
vt 0.281278 0.906120
vt 0.093862 0.906120
vt 0.187500 0.906120
vt 0.187500 1.000000
vt 0.093862 1.000000
vt 0.093862 0.812500
vt 0.187500 0.812500
vt 0.187500 0.906120
vt 0.093862 0.906120
vt 0.187500 0.812500
vt 0.281278 0.812500
vt 0.281278 0.906120
vt 0.187500 0.906120
vt 0.281278 0.812500
vt 0.375000 0.812500
vt 0.375000 0.906120
vt 0.281278 0.906120
vt 0.000000 0.812500
vt 0.093862 0.812500
vt 0.093862 0.906120
vt 0.000000 0.906120
vt 0.328107 0.640609
vt 0.328107 0.812500
vt 0.450000 0.812500
vt 0.449985 0.640609
vt 0.187500 0.640609
vt 0.328107 0.640609
vt 0.328107 0.812500
vt 0.187500 0.812500
vt 0.187500 0.500000
vt 0.328107 0.500000
vt 0.328107 0.640609
vt 0.187500 0.640609
vt 0.328107 0.500000
vt 0.515702 0.500000
vt 0.515702 0.640609
vt 0.328107 0.640609
vt 0.515702 0.500000
vt 0.656219 0.500000
vt 0.656219 0.640609
vt 0.515702 0.640609
vt 0.000000 0.500000
vt 0.187500 0.500000
vt 0.187500 0.640609
vt 0.000000 0.640609
vt 0.562500 0.968711
vt 0.562500 1.000000
vt 0.812500 1.000000
vt 0.812500 0.968711
vt 0.312500 0.937500
vt 0.562500 0.937500
vt 0.562500 0.968711
vt 0.312500 0.968711
vt 0.562500 0.937500
vt 0.812500 0.937500
vt 0.812500 0.968711
vt 0.562500 0.968711
vt 0.281219 0.968711
vt 0.281219 0.937500
vt 0.312500 0.937500
vt 0.312500 0.968711
vt 0.562500 1.000000
vt 0.312500 1.000000
vt 0.312500 0.968711
vt 0.562500 0.968711
vt 0.812500 0.937500
vt 0.812500 0.968711
vt 0.843707 0.968711
vt 0.843707 0.937500
vt 0.562500 0.968711
vt 0.562500 1.000000
vt 0.812500 1.000000
vt 0.812500 0.968711
vt 0.312500 0.937500
vt 0.562500 0.937500
vt 0.562500 0.968711
vt 0.312500 0.968711
vt 0.562500 0.937500
vt 0.812500 0.937500
vt 0.812500 0.968711
vt 0.562500 0.968711
vt 0.281219 0.968711
vt 0.281219 0.937500
vt 0.312500 0.937500
vt 0.312500 0.968711
vt 0.562500 1.000000
vt 0.312500 1.000000
vt 0.312500 0.968711
vt 0.562500 0.968711
vt 0.812500 0.937500
vt 0.812500 0.968711
vt 0.843707 0.968711
vt 0.843707 0.937500
vt 0.562500 0.968711
vt 0.562500 1.000000
vt 0.812500 1.000000
vt 0.812500 0.968711
vt 0.312500 0.937500
vt 0.562500 0.937500
vt 0.562500 0.968711
vt 0.312500 0.968711
vt 0.562500 0.937500
vt 0.812500 0.937500
vt 0.812500 0.968711
vt 0.562500 0.968711
vt 0.281219 0.968711
vt 0.281219 0.937500
vt 0.312500 0.937500
vt 0.312500 0.968711
vt 0.562500 1.000000
vt 0.312500 1.000000
vt 0.312500 0.968711
vt 0.562500 0.968711
vt 0.812500 0.937500
vt 0.812500 0.968711
vt 0.843707 0.968711
vt 0.843707 0.937500
vt 0.562500 0.968711
vt 0.562500 1.000000
vt 0.812500 1.000000
vt 0.812500 0.968711
vt 0.312500 0.937500
vt 0.562500 0.937500
vt 0.562500 0.968711
vt 0.312500 0.968711
vt 0.562500 0.937500
vt 0.812500 0.937500
vt 0.812500 0.968711
vt 0.562500 0.968711
vt 0.281219 0.968711
vt 0.281219 0.937500
vt 0.312500 0.937500
vt 0.312500 0.968711
vt 0.562500 1.000000
vt 0.312500 1.000000
vt 0.312500 0.968711
vt 0.562500 0.968711
vt 0.812500 0.937500
vt 0.812500 0.968711
vt 0.843707 0.968711
vt 0.843707 0.937500
vt 0.562500 0.968711
vt 0.812500 0.968711
vt 0.812500 1.000000
vt 0.562500 1.000000
vt 0.312500 0.937500
vt 0.312500 0.968711
vt 0.562500 0.968711
vt 0.562500 0.937500
vt 0.562500 0.937500
vt 0.562500 0.968711
vt 0.812500 0.968711
vt 0.812500 0.937500
vt 0.281219 0.968711
vt 0.312500 0.968711
vt 0.312500 0.937500
vt 0.281219 0.937500
vt 0.562500 1.000000
vt 0.562500 0.968711
vt 0.312500 0.968711
vt 0.312500 1.000000
vt 0.812500 0.937500
vt 0.843707 0.937500
vt 0.843707 0.968711
vt 0.812500 0.968711
vt 0.562500 0.968711
vt 0.812500 0.968711
vt 0.812500 1.000000
vt 0.562500 1.000000
vt 0.312500 0.937500
vt 0.312500 0.968711
vt 0.562500 0.968711
vt 0.562500 0.937500
vt 0.562500 0.937500
vt 0.562500 0.968711
vt 0.812500 0.968711
vt 0.812500 0.937500
vt 0.281219 0.968711
vt 0.312500 0.968711
vt 0.312500 0.937500
vt 0.281219 0.937500
vt 0.562500 1.000000
vt 0.562500 0.968711
vt 0.312500 0.968711
vt 0.312500 1.000000
vt 0.812500 0.937500
vt 0.843707 0.937500
vt 0.843707 0.968711
vt 0.812500 0.968711
vt 0.562500 0.968711
vt 0.812500 0.968711
vt 0.812500 1.000000
vt 0.562500 1.000000
vt 0.312500 0.937500
vt 0.312500 0.968711
vt 0.562500 0.968711
vt 0.562500 0.937500
vt 0.562500 0.937500
vt 0.562500 0.968711
vt 0.812500 0.968711
vt 0.812500 0.937500
vt 0.281219 0.968711
vt 0.312500 0.968711
vt 0.312500 0.937500
vt 0.281219 0.937500
vt 0.562500 1.000000
vt 0.562500 0.968711
vt 0.312500 0.968711
vt 0.312500 1.000000
vt 0.812500 0.937500
vt 0.843707 0.937500
vt 0.843707 0.968711
vt 0.812500 0.968711
vt 0.562500 0.968711
vt 0.812500 0.968711
vt 0.812500 1.000000
vt 0.562500 1.000000
vt 0.312500 0.937500
vt 0.312500 0.968711
vt 0.562500 0.968711
vt 0.562500 0.937500
vt 0.562500 0.937500
vt 0.562500 0.968711
vt 0.812500 0.968711
vt 0.812500 0.937500
vt 0.281219 0.968711
vt 0.312500 0.968711
vt 0.312500 0.937500
vt 0.281219 0.937500
vt 0.562500 1.000000
vt 0.562500 0.968711
vt 0.312500 0.968711
vt 0.312500 1.000000
vt 0.812500 0.937500
vt 0.843707 0.937500
vt 0.843707 0.968711
vt 0.812500 0.968711
vn 0.000000 -1.000000 0.000000
vn 0.000000 -1.000000 0.000000
vn 0.000000 -1.000000 0.000000
vn 0.000000 -1.000000 0.000000
vn 0.000000 1.000000 0.000000
vn 0.000000 1.000000 0.000000
vn 0.000000 1.000000 0.000000
vn 0.000000 1.000000 0.000000
vn 0.000000 0.000000 1.000000
vn 0.000000 0.000000 1.000000
vn 0.000000 0.000000 1.000000
vn 0.000000 0.000000 1.000000
vn 1.000000 0.000000 0.000000
vn 1.000000 0.000000 0.000000
vn 1.000000 0.000000 0.000000
vn 1.000000 0.000000 0.000000
vn 0.000000 0.000000 -1.000000
vn 0.000000 0.000000 -1.000000
vn 0.000000 0.000000 -1.000000
vn 0.000000 0.000000 -1.000000
vn -1.000000 0.000000 0.000000
vn -1.000000 0.000000 0.000000
vn -1.000000 0.000000 0.000000
vn -1.000000 0.000000 0.000000
vn 0.000000 -1.000000 0.000000
vn 0.000000 -1.000000 0.000000
vn 0.000000 -1.000000 0.000000
vn 0.000000 -1.000000 0.000000
vn 0.000000 1.000000 0.000000
vn 0.000000 1.000000 0.000000
vn 0.000000 1.000000 0.000000
vn 0.000000 1.000000 0.000000
vn 0.000000 0.000000 1.000000
vn 0.000000 0.000000 1.000000
vn 0.000000 0.000000 1.000000
vn 0.000000 0.000000 1.000000
vn 1.000000 0.000000 0.000000
vn 1.000000 0.000000 0.000000
vn 1.000000 0.000000 0.000000
vn 1.000000 0.000000 0.000000
vn 0.000000 0.000000 -1.000000
vn 0.000000 0.000000 -1.000000
vn 0.000000 0.000000 -1.000000
vn 0.000000 0.000000 -1.000000
vn -1.000000 0.000000 0.000000
vn -1.000000 0.000000 0.000000
vn -1.000000 0.000000 0.000000
vn -1.000000 0.000000 0.000000
vn 0.000000 -1.000000 0.000000
vn 0.000000 -1.000000 0.000000
vn 0.000000 -1.000000 0.000000
vn 0.000000 -1.000000 0.000000
vn 0.000000 1.000000 0.000000
vn 0.000000 1.000000 0.000000
vn 0.000000 1.000000 0.000000
vn 0.000000 1.000000 0.000000
vn 0.000000 0.000000 1.000000
vn 0.000000 0.000000 1.000000
vn 0.000000 0.000000 1.000000
vn 0.000000 0.000000 1.000000
vn 1.000000 0.000000 0.000000
vn 1.000000 0.000000 0.000000
vn 1.000000 0.000000 0.000000
vn 1.000000 0.000000 0.000000
vn 0.000000 0.000000 -1.000000
vn 0.000000 0.000000 -1.000000
vn 0.000000 0.000000 -1.000000
vn 0.000000 0.000000 -1.000000
vn -1.000000 0.000000 0.000000
vn -1.000000 0.000000 0.000000
vn -1.000000 0.000000 0.000000
vn -1.000000 0.000000 0.000000
vn -0.562997 -0.813798 -0.144110
vn -0.562997 -0.813798 -0.144110
vn -0.562997 -0.813798 -0.144110
vn -0.562997 -0.813798 -0.144110
vn 0.562997 0.813798 0.144110
vn 0.562997 0.813798 0.144110
vn 0.562997 0.813798 0.144110
vn 0.562997 0.813798 0.144110
vn 0.491450 -0.469846 0.733295
vn 0.491450 -0.469846 0.733295
vn 0.491450 -0.469846 0.733295
vn 0.491450 -0.469846 0.733295
vn 0.664463 -0.342021 -0.664463
vn 0.664463 -0.342021 -0.664463
vn 0.664463 -0.342021 -0.664463
vn 0.664463 -0.342021 -0.664463
vn -0.491450 0.469846 -0.733295
vn -0.491450 0.469846 -0.733295
vn -0.491450 0.469846 -0.733295
vn -0.491450 0.469846 -0.733295
vn -0.664463 0.342020 0.664463
vn -0.664463 0.342020 0.664463
vn -0.664463 0.342020 0.664463
vn -0.664463 0.342020 0.664463
vn -0.415515 -0.813798 -0.406301
vn -0.415515 -0.813798 -0.406301
vn -0.415515 -0.813798 -0.406301
vn -0.415515 -0.813798 -0.406301
vn 0.415515 0.813798 0.406301
vn 0.415515 0.813798 0.406301
vn 0.415515 0.813798 0.406301
vn 0.415515 0.813798 0.406301
vn 0.058961 -0.469846 0.880777
vn 0.058961 -0.469846 0.880777
vn 0.058961 -0.469846 0.880777
vn 0.058961 -0.469846 0.880777
vn 0.907674 -0.342020 -0.243210
vn 0.907674 -0.342020 -0.243210
vn 0.907674 -0.342020 -0.243210
vn 0.907674 -0.342020 -0.243210
vn -0.058961 0.469846 -0.880777
vn -0.058961 0.469846 -0.880777
vn -0.058961 0.469846 -0.880777
vn -0.058961 0.469846 -0.880777
vn -0.907673 0.342020 0.243210
vn -0.907673 0.342020 0.243210
vn -0.907673 0.342020 0.243210
vn -0.907673 0.342020 0.243210
vn -0.221921 -0.883022 -0.413549
vn -0.221921 -0.883022 -0.413549
vn -0.221921 -0.883022 -0.413549
vn -0.221921 -0.883022 -0.413549
vn 0.221921 0.883022 0.413549
vn 0.221921 0.883022 0.413549
vn 0.221921 0.883022 0.413549
vn 0.221921 0.883022 0.413549
vn -0.356202 -0.321394 0.877397
vn -0.356202 -0.321394 0.877397
vn -0.356202 -0.321394 0.877397
vn -0.356202 -0.321394 0.877397
vn 0.907673 -0.342020 0.243210
vn 0.907673 -0.342020 0.243210
vn 0.907673 -0.342020 0.243210
vn 0.907673 -0.342020 0.243210
vn 0.356202 0.321394 -0.877397
vn 0.356202 0.321394 -0.877397
vn 0.356202 0.321394 -0.877397
vn 0.356202 0.321394 -0.877397
vn -0.907673 0.342020 -0.243210
vn -0.907673 0.342020 -0.243210
vn -0.907673 0.342020 -0.243210
vn -0.907673 0.342020 -0.243210
vn 0.014585 -0.883022 -0.469104
vn 0.014585 -0.883022 -0.469104
vn 0.014585 -0.883022 -0.469104
vn 0.014585 -0.883022 -0.469104
vn -0.014585 0.883022 0.469104
vn -0.014585 0.883022 0.469104
vn -0.014585 0.883022 0.469104
vn -0.014585 0.883022 0.469104
vn -0.747179 -0.321394 0.581748
vn -0.747179 -0.321394 0.581747
vn -0.747179 -0.321394 0.581748
vn -0.747179 -0.321394 0.581748
vn 0.664463 -0.342020 0.664463
vn 0.664463 -0.342020 0.664463
vn 0.664463 -0.342020 0.664463
vn 0.664463 -0.342020 0.664463
vn 0.747179 0.321393 -0.581748
vn 0.747179 0.321393 -0.581748
vn 0.747179 0.321393 -0.581748
vn 0.747179 0.321393 -0.581748
vn -0.664463 0.342020 -0.664463
vn -0.664463 0.342020 -0.664463
vn -0.664463 0.342020 -0.664463
vn -0.664463 0.342020 -0.664463
vn -0.014585 -0.883022 -0.469104
vn -0.014585 -0.883022 -0.469104
vn -0.014585 -0.883022 -0.469104
vn -0.014585 -0.883022 -0.469104
vn 0.014585 0.883022 0.469104
vn 0.014585 0.883022 0.469104
vn 0.014585 0.883022 0.469104
vn 0.014585 0.883022 0.469104
vn 0.747179 -0.321394 0.581747
vn 0.747179 -0.321394 0.581747
vn 0.747179 -0.321394 0.581747
vn 0.747179 -0.321394 0.581747
vn -0.664463 -0.342020 0.664463
vn -0.664463 -0.342020 0.664463
vn -0.664463 -0.342020 0.664463
vn -0.664463 -0.342020 0.664463
vn -0.747179 0.321394 -0.581747
vn -0.747179 0.321394 -0.581747
vn -0.747179 0.321394 -0.581747
vn -0.747179 0.321394 -0.581747
vn 0.664463 0.342020 -0.664463
vn 0.664463 0.342020 -0.664463
vn 0.664463 0.342020 -0.664463
vn 0.664463 0.342020 -0.664463
vn 0.415515 -0.813798 -0.406301
vn 0.415515 -0.813798 -0.406301
vn 0.415515 -0.813798 -0.406301
vn 0.415515 -0.813798 -0.406301
vn -0.415515 0.813798 0.406301
vn -0.415515 0.813798 0.406301
vn -0.415515 0.813798 0.406301
vn -0.415515 0.813798 0.406301
vn -0.058961 -0.469846 0.880777
vn -0.058961 -0.469846 0.880777
vn -0.058961 -0.469846 0.880777
vn -0.058961 -0.469846 0.880777
vn -0.907673 -0.342020 -0.243211
vn -0.907673 -0.342020 -0.243211
vn -0.907673 -0.342020 -0.243211
vn -0.907673 -0.342020 -0.243211
vn 0.058961 0.469846 -0.880777
vn 0.058961 0.469846 -0.880777
vn 0.058961 0.469846 -0.880777
vn 0.058961 0.469846 -0.880777
vn 0.907673 0.342020 0.243210
vn 0.907673 0.342020 0.243210
vn 0.907673 0.342020 0.243210
vn 0.907673 0.342020 0.243210
vn 0.562997 -0.813798 -0.144110
vn 0.562997 -0.813798 -0.144110
vn 0.562997 -0.813798 -0.144110
vn 0.562997 -0.813798 -0.144110
vn -0.562997 0.813798 0.144110
vn -0.562997 0.813798 0.144110
vn -0.562997 0.813798 0.144110
vn -0.562997 0.813798 0.144110
vn -0.491450 -0.469846 0.733295
vn -0.491450 -0.469846 0.733295
vn -0.491450 -0.469846 0.733295
vn -0.491450 -0.469846 0.733295
vn -0.664463 -0.342020 -0.664463
vn -0.664463 -0.342020 -0.664463
vn -0.664463 -0.342020 -0.664463
vn -0.664463 -0.342020 -0.664463
vn 0.491450 0.469846 -0.733295
vn 0.491450 0.469846 -0.733295
vn 0.491450 0.469846 -0.733295
vn 0.491450 0.469846 -0.733295
vn 0.664463 0.342020 0.664463
vn 0.664463 0.342020 0.664463
vn 0.664463 0.342020 0.664463
vn 0.664463 0.342020 0.664463
vn 0.221921 -0.883022 -0.413549
vn 0.221921 -0.883022 -0.413549
vn 0.221921 -0.883022 -0.413549
vn 0.221921 -0.883022 -0.413549
vn -0.221921 0.883022 0.413549
vn -0.221921 0.883022 0.413549
vn -0.221921 0.883022 0.413549
vn -0.221921 0.883022 0.413549
vn 0.356202 -0.321394 0.877397
vn 0.356202 -0.321394 0.877397
vn 0.356202 -0.321394 0.877397
vn 0.356202 -0.321394 0.877397
vn -0.907674 -0.342020 0.243210
vn -0.907674 -0.342020 0.243210
vn -0.907674 -0.342020 0.243210
vn -0.907674 -0.342020 0.243210
vn -0.356202 0.321394 -0.877397
vn -0.356202 0.321394 -0.877397
vn -0.356202 0.321394 -0.877397
vn -0.356202 0.321394 -0.877397
vn 0.907673 0.342020 -0.243210
vn 0.907673 0.342020 -0.243210
vn 0.907673 0.342020 -0.243210
vn 0.907673 0.342020 -0.243210
s off
g crawler2:Spider
usemtl crawler2:SpiderSG
f 1/1/1 3/2/2 4/3/3 2/4/4
f 5/5/5 6/6/6 8/7/7 7/8/8
f 1/9/9 2/10/10 6/11/11 5/12/12
f 2/13/13 4/14/14 8/15/15 6/16/16
f 4/17/17 3/18/18 7/19/19 8/20/20
f 3/21/21 1/22/22 5/23/23 7/24/24
f 9/25/25 11/26/26 12/27/27 10/28/28
f 13/29/29 14/30/30 16/31/31 15/32/32
f 9/33/33 10/34/34 14/35/35 13/36/36
f 10/37/37 12/38/38 16/39/39 14/40/40
f 12/41/41 11/42/42 15/43/43 16/44/44
f 11/45/45 9/46/46 13/47/47 15/48/48
f 17/49/49 19/50/50 20/51/51 18/52/52
f 21/53/53 22/54/54 24/55/55 23/56/56
f 17/57/57 18/58/58 22/59/59 21/60/60
f 18/61/61 20/62/62 24/63/63 22/64/64
f 20/65/65 19/66/66 23/67/67 24/68/68
f 19/69/69 17/70/70 21/71/71 23/72/72
f 25/73/73 27/74/74 28/75/75 26/76/76
f 29/77/77 30/78/78 32/79/79 31/80/80
f 25/81/81 26/82/82 30/83/83 29/84/84
f 26/85/85 28/86/86 32/87/87 30/88/88
f 28/89/89 27/90/90 31/91/91 32/92/92
f 27/93/93 25/94/94 29/95/95 31/96/96
f 33/97/97 35/98/98 36/99/99 34/100/100
f 37/101/101 38/102/102 40/103/103 39/104/104
f 33/105/105 34/106/106 38/107/107 37/108/108
f 34/109/109 36/110/110 40/111/111 38/112/112
f 36/113/113 35/114/114 39/115/115 40/116/116
f 35/117/117 33/118/118 37/119/119 39/120/120
f 41/121/121 43/122/122 44/123/123 42/124/124
f 45/125/125 46/126/126 48/127/127 47/128/128
f 41/129/129 42/130/130 46/131/131 45/132/132
f 42/133/133 44/134/134 48/135/135 46/136/136
f 44/137/137 43/138/138 47/139/139 48/140/140
f 43/141/141 41/142/142 45/143/143 47/144/144
f 49/145/145 51/146/146 52/147/147 50/148/148
f 53/149/149 54/150/150 56/151/151 55/152/152
f 49/153/153 50/154/154 54/155/155 53/156/156
f 50/157/157 52/158/158 56/159/159 54/160/160
f 52/161/161 51/162/162 55/163/163 56/164/164
f 51/165/165 49/166/166 53/167/167 55/168/168
f 57/169/169 58/170/170 60/171/171 59/172/172
f 61/173/173 63/174/174 64/175/175 62/176/176
f 57/177/177 61/178/178 62/179/179 58/180/180
f 58/181/181 62/182/182 64/183/183 60/184/184
f 60/185/185 64/186/186 63/187/187 59/188/188
f 59/189/189 63/190/190 61/191/191 57/192/192
f 65/193/193 66/194/194 68/195/195 67/196/196
f 69/197/197 71/198/198 72/199/199 70/200/200
f 65/201/201 69/202/202 70/203/203 66/204/204
f 66/205/205 70/206/206 72/207/207 68/208/208
f 68/209/209 72/210/210 71/211/211 67/212/212
f 67/213/213 71/214/214 69/215/215 65/216/216
f 73/217/217 74/218/218 76/219/219 75/220/220
f 77/221/221 79/222/222 80/223/223 78/224/224
f 73/225/225 77/226/226 78/227/227 74/228/228
f 74/229/229 78/230/230 80/231/231 76/232/232
f 76/233/233 80/234/234 79/235/235 75/236/236
f 75/237/237 79/238/238 77/239/239 73/240/240
f 81/241/241 82/242/242 84/243/243 83/244/244
f 85/245/245 87/246/246 88/247/247 86/248/248
f 81/249/249 85/250/250 86/251/251 82/252/252
f 82/253/253 86/254/254 88/255/255 84/256/256
f 84/257/257 88/258/258 87/259/259 83/260/260
f 83/261/261 87/262/262 85/263/263 81/264/264
