# This file uses centimeters as units for non-parametric coordinates.

mtllib scrake.mtl
g default
v -0.912126 0.299090 0.405389
v 0.912126 0.299090 0.405389
v -0.912126 0.299090 -0.709431
v 0.912126 0.299090 -0.709431
v -0.912126 1.515257 0.405389
v 0.912126 1.515257 0.405389
v -0.912126 1.515257 -0.709431
v 0.912126 1.515257 -0.709431
v -0.405389 1.515257 0.506737
v 0.405389 1.515257 0.506737
v -0.405389 1.515257 -0.304042
v 0.405389 1.515257 -0.304042
v -0.405389 2.528730 0.506737
v 0.405389 2.528730 0.506737
v -0.405389 2.528730 -0.304042
v 0.405389 2.528730 -0.304042
v -0.101347 1.515257 0.709431
v 0.101347 1.515257 0.709431
v -0.101347 1.515257 0.506737
v 0.101347 1.515257 0.506737
v -0.101347 1.920646 0.709431
v 0.101347 1.920646 0.709431
v -0.101347 1.920646 0.506737
v 0.101347 1.920646 0.506737
v 0.912126 -1.474488 0.152021
v 1.317515 -1.474488 0.152021
v 0.912126 -1.474488 -0.456063
v 1.317515 -1.474488 -0.456063
v 0.912126 1.565931 0.152021
v 1.317515 1.565931 0.152021
v 0.912126 1.565931 -0.456063
v 1.317515 1.565931 -0.456063
v -1.317515 -1.474488 0.152021
v -0.912126 -1.474488 0.152021
v -1.317515 -1.474488 -0.456063
v -0.912126 -1.474488 -0.456063
v -1.317515 1.565931 0.152021
v -0.912126 1.565931 0.152021
v -1.317515 1.565931 -0.456063
v -0.912126 1.565931 -0.456063
v -0.760105 -1.778530 0.050674
v -0.152021 -1.778530 0.050674
v -0.760105 -1.778530 -0.456063
v -0.152021 -1.778530 -0.456063
v -0.760105 -0.156973 0.050674
v -0.152021 -0.156973 0.050674
v -0.760105 -0.156973 -0.456063
v -0.152021 -0.156973 -0.456063
v 0.152021 -1.778530 0.050674
v 0.760105 -1.778530 0.050674
v 0.152021 -1.778530 -0.456063
v 0.760105 -1.778530 -0.456063
v 0.152021 -0.156973 0.050674
v 0.760105 -0.156973 0.050674
v 0.152021 -0.156973 -0.456063
v 0.760105 -0.156973 -0.456063
v -0.456063 -0.207647 0.101347
v 0.456063 -0.207647 0.101347
v -0.456063 -0.207647 -0.405389
v 0.456063 -0.207647 -0.405389
v -0.456063 0.299090 0.101347
v 0.456063 0.299090 0.101347
v -0.456063 0.299090 -0.405389
v 0.456063 0.299090 -0.405389
vt 0.226512 0.601500
vt 0.226512 0.687500
vt 0.362500 0.687500
vt 0.362500 0.601500
vt 0.085928 0.601500
vt 0.226512 0.601500
vt 0.226512 0.687500
vt 0.085928 0.687500
vt 0.085928 0.507953
vt 0.226512 0.507953
vt 0.226512 0.601500
vt 0.085928 0.601500
vt 0.226512 0.507953
vt 0.312500 0.507953
vt 0.312500 0.601500
vt 0.226512 0.601500
vt 0.312500 0.507953
vt 0.453197 0.507953
vt 0.453197 0.601500
vt 0.312500 0.601500
vt 0.000000 0.507953
vt 0.085928 0.507953
vt 0.085928 0.601500
vt 0.000000 0.601500
vt 0.125000 0.937500
vt 0.125000 1.000000
vt 0.187500 1.000000
vt 0.187500 0.937500
vt 0.062500 0.937500
vt 0.125000 0.937500
vt 0.125000 1.000000
vt 0.062500 1.000000
vt 0.062500 0.859372
vt 0.125000 0.859372
vt 0.125000 0.937500
vt 0.062500 0.937500
vt 0.125000 0.859372
vt 0.187500 0.859372
vt 0.187500 0.937500
vt 0.125000 0.937500
vt 0.187500 0.859372
vt 0.250000 0.859372
vt 0.250000 0.937500
vt 0.187500 0.937500
vt 0.000000 0.859372
vt 0.062500 0.859372
vt 0.062500 0.937500
vt 0.000000 0.937500
vt 0.218761 0.984316
vt 0.218761 0.996816
vt 0.234337 0.996816
vt 0.234337 0.984316
vt 0.203144 0.984316
vt 0.218761 0.984316
vt 0.218761 0.996816
vt 0.203144 0.996816
vt 0.203144 0.953148
vt 0.218761 0.953148
vt 0.218761 0.984316
vt 0.203144 0.984316
vt 0.218761 0.953148
vt 0.234337 0.953148
vt 0.234337 0.984316
vt 0.218761 0.984316
vt 0.234337 0.953148
vt 0.250000 0.953148
vt 0.250000 0.984316
vt 0.234337 0.984316
vt 0.187500 0.953148
vt 0.203144 0.953148
vt 0.203144 0.984316
vt 0.187500 0.984316
vt 0.546840 0.500000
vt 0.546840 0.546463
vt 0.577749 0.546463
vt 0.577762 0.500000
vt 0.515789 0.500000
vt 0.546840 0.500000
vt 0.546840 0.546463
vt 0.515789 0.546463
vt 0.515789 0.265639
vt 0.546840 0.265639
vt 0.546840 0.500000
vt 0.515789 0.500000
vt 0.546840 0.265639
vt 0.585984 0.265639
vt 0.585984 0.500000
vt 0.546840 0.500000
vt 0.585984 0.265639
vt 0.625000 0.265639
vt 0.625000 0.500000
vt 0.585984 0.500000
vt 0.475000 0.265639
vt 0.515789 0.265639
vt 0.515789 0.500000
vt 0.475000 0.500000
vt 0.546747 0.788906
vt 0.546747 0.835369
vt 0.577655 0.835369
vt 0.577669 0.788906
vt 0.515695 0.788906
vt 0.546747 0.788906
vt 0.546747 0.835369
vt 0.515695 0.835369
vt 0.515695 0.554545
vt 0.546747 0.554545
vt 0.546747 0.788906
vt 0.515695 0.788906
vt 0.546747 0.554545
vt 0.593149 0.554545
vt 0.593149 0.788906
vt 0.546747 0.788906
vt 0.593149 0.554545
vt 0.624907 0.554545
vt 0.624907 0.788906
vt 0.593149 0.788906
vt 0.469055 0.554545
vt 0.515695 0.554545
vt 0.515695 0.788906
vt 0.469055 0.788906
vt 0.375058 0.960974
vt 0.375058 1.000177
vt 0.420308 1.000177
vt 0.420306 0.960974
vt 0.328032 0.960974
vt 0.375058 0.960974
vt 0.375058 1.000177
vt 0.328032 1.000177
vt 0.328032 0.836137
vt 0.375058 0.836137
vt 0.375058 0.960974
vt 0.328032 0.960974
vt 0.375058 0.836137
vt 0.414090 0.836137
vt 0.414090 0.960974
vt 0.375058 0.960974
vt 0.414090 0.836137
vt 0.460913 0.836137
vt 0.460913 0.960974
vt 0.414090 0.960974
vt 0.289116 0.836137
vt 0.328032 0.836137
vt 0.328032 0.960974
vt 0.289116 0.960974
vt 0.554750 0.960797
vt 0.554750 1.000000
vt 0.600000 1.000000
vt 0.599997 0.960797
vt 0.507724 0.960797
vt 0.554750 0.960797
vt 0.554750 1.000000
vt 0.507724 1.000000
vt 0.507724 0.835960
vt 0.554750 0.835960
vt 0.554750 0.960797
vt 0.507724 0.960797
vt 0.554750 0.835960
vt 0.593782 0.835960
vt 0.593782 0.960797
vt 0.554750 0.960797
vt 0.593782 0.835960
vt 0.640605 0.835960
vt 0.640605 0.960797
vt 0.593782 0.960797
vt 0.468808 0.835960
vt 0.507724 0.835960
vt 0.507724 0.960797
vt 0.468808 0.960797
vt 0.117193 0.406159
vt 0.117193 0.452994
vt 0.187500 0.452994
vt 0.187491 0.406159
vt 0.046899 0.406159
vt 0.117193 0.406159
vt 0.117193 0.452994
vt 0.046899 0.452994
vt 0.046899 0.367198
vt 0.117193 0.367198
vt 0.117193 0.406159
vt 0.046899 0.406159
vt 0.117193 0.367198
vt 0.162500 0.367198
vt 0.162500 0.406159
vt 0.117193 0.406159
vt 0.162500 0.367198
vt 0.234160 0.367198
vt 0.234160 0.406159
vt 0.162500 0.406159
vt 0.000000 0.367198
vt 0.046899 0.367198
vt 0.046899 0.406159
vt 0.000000 0.406159
vn 0.000000 -1.000000 0.000000
vn 0.000000 -1.000000 0.000000
vn 0.000000 -1.000000 0.000000
vn 0.000000 -1.000000 0.000000
vn 0.000000 1.000000 0.000000
vn 0.000000 1.000000 0.000000
vn 0.000000 1.000000 0.000000
vn 0.000000 1.000000 0.000000
vn 0.000000 0.000000 1.000000
vn 0.000000 0.000000 1.000000
vn 0.000000 0.000000 1.000000
vn 0.000000 0.000000 1.000000
vn 1.000000 0.000000 0.000000
vn 1.000000 0.000000 0.000000
vn 1.000000 0.000000 0.000000
vn 1.000000 0.000000 0.000000
vn 0.000000 0.000000 -1.000000
vn 0.000000 0.000000 -1.000000
vn 0.000000 0.000000 -1.000000
vn 0.000000 0.000000 -1.000000
vn -1.000000 0.000000 0.000000
vn -1.000000 0.000000 0.000000
vn -1.000000 0.000000 0.000000
vn -1.000000 0.000000 0.000000
vn 0.000000 -1.000000 0.000000
vn 0.000000 -1.000000 0.000000
vn 0.000000 -1.000000 0.000000
vn 0.000000 -1.000000 0.000000
vn 0.000000 1.000000 0.000000
vn 0.000000 1.000000 0.000000
vn 0.000000 1.000000 0.000000
vn 0.000000 1.000000 0.000000
vn 0.000000 0.000000 1.000000
vn 0.000000 0.000000 1.000000
vn 0.000000 0.000000 1.000000
vn 0.000000 0.000000 1.000000
vn 1.000000 0.000000 0.000000
vn 1.000000 0.000000 0.000000
vn 1.000000 0.000000 0.000000
vn 1.000000 0.000000 0.000000
vn 0.000000 0.000000 -1.000000
vn 0.000000 0.000000 -1.000000
vn 0.000000 0.000000 -1.000000
vn 0.000000 0.000000 -1.000000
vn -1.000000 0.000000 0.000000
vn -1.000000 0.000000 0.000000
vn -1.000000 0.000000 0.000000
vn -1.000000 0.000000 0.000000
vn 0.000000 -1.000000 0.000000
vn 0.000000 -1.000000 0.000000
vn 0.000000 -1.000000 0.000000
vn 0.000000 -1.000000 0.000000
vn 0.000000 1.000000 0.000000
vn 0.000000 1.000000 0.000000
vn 0.000000 1.000000 0.000000
vn 0.000000 1.000000 0.000000
vn 0.000000 0.000000 1.000000
vn 0.000000 0.000000 1.000000
vn 0.000000 0.000000 1.000000
vn 0.000000 0.000000 1.000000
vn 1.000000 0.000000 0.000000
vn 1.000000 0.000000 0.000000
vn 1.000000 0.000000 0.000000
vn 1.000000 0.000000 0.000000
vn 0.000000 0.000000 -1.000000
vn 0.000000 0.000000 -1.000000
vn 0.000000 0.000000 -1.000000
vn 0.000000 0.000000 -1.000000
vn -1.000000 0.000000 0.000000
vn -1.000000 0.000000 0.000000
vn -1.000000 0.000000 0.000000
vn -1.000000 0.000000 0.000000
vn 0.000000 -1.000000 0.000000
vn 0.000000 -1.000000 0.000000
vn 0.000000 -1.000000 0.000000
vn 0.000000 -1.000000 0.000000
vn 0.000000 1.000000 0.000000
vn 0.000000 1.000000 0.000000
vn 0.000000 1.000000 0.000000
vn 0.000000 1.000000 0.000000
vn 0.000000 0.000000 1.000000
vn 0.000000 0.000000 1.000000
vn 0.000000 0.000000 1.000000
vn 0.000000 0.000000 1.000000
vn 1.000000 0.000000 0.000000
vn 1.000000 0.000000 0.000000
vn 1.000000 0.000000 0.000000
vn 1.000000 0.000000 0.000000
vn 0.000000 0.000000 -1.000000
vn 0.000000 0.000000 -1.000000
vn 0.000000 0.000000 -1.000000
vn 0.000000 0.000000 -1.000000
vn -1.000000 0.000000 0.000000
vn -1.000000 0.000000 0.000000
vn -1.000000 0.000000 0.000000
vn -1.000000 0.000000 0.000000
vn 0.000000 -1.000000 0.000000
vn 0.000000 -1.000000 0.000000
vn 0.000000 -1.000000 0.000000
vn 0.000000 -1.000000 0.000000
vn 0.000000 1.000000 0.000000
vn 0.000000 1.000000 0.000000
vn 0.000000 1.000000 0.000000
vn 0.000000 1.000000 0.000000
vn 0.000000 0.000000 1.000000
vn 0.000000 0.000000 1.000000
vn 0.000000 0.000000 1.000000
vn 0.000000 0.000000 1.000000
vn 1.000000 0.000000 0.000000
vn 1.000000 0.000000 0.000000
vn 1.000000 0.000000 0.000000
vn 1.000000 0.000000 0.000000
vn 0.000000 0.000000 -1.000000
vn 0.000000 0.000000 -1.000000
vn 0.000000 0.000000 -1.000000
vn 0.000000 0.000000 -1.000000
vn -1.000000 0.000000 0.000000
vn -1.000000 0.000000 0.000000
vn -1.000000 0.000000 0.000000
vn -1.000000 0.000000 0.000000
vn 0.000000 -1.000000 0.000000
vn 0.000000 -1.000000 0.000000
vn 0.000000 -1.000000 0.000000
vn 0.000000 -1.000000 0.000000
vn 0.000000 1.000000 0.000000
vn 0.000000 1.000000 0.000000
vn 0.000000 1.000000 0.000000
vn 0.000000 1.000000 0.000000
vn 0.000000 0.000000 1.000000
vn 0.000000 0.000000 1.000000
vn 0.000000 0.000000 1.000000
vn 0.000000 0.000000 1.000000
vn 1.000000 0.000000 0.000000
vn 1.000000 0.000000 0.000000
vn 1.000000 0.000000 0.000000
vn 1.000000 0.000000 0.000000
vn 0.000000 0.000000 -1.000000
vn 0.000000 0.000000 -1.000000
vn 0.000000 0.000000 -1.000000
vn 0.000000 0.000000 -1.000000
vn -1.000000 0.000000 0.000000
vn -1.000000 0.000000 0.000000
vn -1.000000 0.000000 0.000000
vn -1.000000 0.000000 0.000000
vn 0.000000 -1.000000 0.000000
vn 0.000000 -1.000000 0.000000
vn 0.000000 -1.000000 0.000000
vn 0.000000 -1.000000 0.000000
vn 0.000000 1.000000 0.000000
vn 0.000000 1.000000 0.000000
vn 0.000000 1.000000 0.000000
vn 0.000000 1.000000 0.000000
vn 0.000000 0.000000 1.000000
vn 0.000000 0.000000 1.000000
vn 0.000000 0.000000 1.000000
vn 0.000000 0.000000 1.000000
vn 1.000000 0.000000 0.000000
vn 1.000000 0.000000 0.000000
vn 1.000000 0.000000 0.000000
vn 1.000000 0.000000 0.000000
vn 0.000000 0.000000 -1.000000
vn 0.000000 0.000000 -1.000000
vn 0.000000 0.000000 -1.000000
vn 0.000000 0.000000 -1.000000
vn -1.000000 0.000000 0.000000
vn -1.000000 0.000000 0.000000
vn -1.000000 0.000000 0.000000
vn -1.000000 0.000000 0.000000
vn 0.000000 -1.000000 0.000000
vn 0.000000 -1.000000 0.000000
vn 0.000000 -1.000000 0.000000
vn 0.000000 -1.000000 0.000000
vn 0.000000 1.000000 0.000000
vn 0.000000 1.000000 0.000000
vn 0.000000 1.000000 0.000000
vn 0.000000 1.000000 0.000000
vn 0.000000 0.000000 1.000000
vn 0.000000 0.000000 1.000000
vn 0.000000 0.000000 1.000000
vn 0.000000 0.000000 1.000000
vn 1.000000 0.000000 0.000000
vn 1.000000 0.000000 0.000000
vn 1.000000 0.000000 0.000000
vn 1.000000 0.000000 0.000000
vn 0.000000 0.000000 -1.000000
vn 0.000000 0.000000 -1.000000
vn 0.000000 0.000000 -1.000000
vn 0.000000 0.000000 -1.000000
vn -1.000000 0.000000 0.000000
vn -1.000000 0.000000 0.000000
vn -1.000000 0.000000 0.000000
vn -1.000000 0.000000 0.000000
s off
g scrake1:IronFBXASC032Golem
usemtl scrake1:IronFBXASC032GolemSG
f 1/1/1 3/2/2 4/3/3 2/4/4
f 5/5/5 6/6/6 8/7/7 7/8/8
f 1/9/9 2/10/10 6/11/11 5/12/12
f 2/13/13 4/14/14 8/15/15 6/16/16
f 4/17/17 3/18/18 7/19/19 8/20/20
f 3/21/21 1/22/22 5/23/23 7/24/24
f 9/25/25 11/26/26 12/27/27 10/28/28
f 13/29/29 14/30/30 16/31/31 15/32/32
f 9/33/33 10/34/34 14/35/35 13/36/36
f 10/37/37 12/38/38 16/39/39 14/40/40
f 12/41/41 11/42/42 15/43/43 16/44/44
f 11/45/45 9/46/46 13/47/47 15/48/48
f 17/49/49 19/50/50 20/51/51 18/52/52
f 21/53/53 22/54/54 24/55/55 23/56/56
f 17/57/57 18/58/58 22/59/59 21/60/60
f 18/61/61 20/62/62 24/63/63 22/64/64
f 20/65/65 19/66/66 23/67/67 24/68/68
f 19/69/69 17/70/70 21/71/71 23/72/72
f 25/73/73 27/74/74 28/75/75 26/76/76
f 29/77/77 30/78/78 32/79/79 31/80/80
f 25/81/81 26/82/82 30/83/83 29/84/84
f 26/85/85 28/86/86 32/87/87 30/88/88
f 28/89/89 27/90/90 31/91/91 32/92/92
f 27/93/93 25/94/94 29/95/95 31/96/96
f 33/97/97 35/98/98 36/99/99 34/100/100
f 37/101/101 38/102/102 40/103/103 39/104/104
f 33/105/105 34/106/106 38/107/107 37/108/108
f 34/109/109 36/110/110 40/111/111 38/112/112
f 36/113/113 35/114/114 39/115/115 40/116/116
f 35/117/117 33/118/118 37/119/119 39/120/120
f 41/121/121 43/122/122 44/123/123 42/124/124
f 45/125/125 46/126/126 48/127/127 47/128/128
f 41/129/129 42/130/130 46/131/131 45/132/132
f 42/133/133 44/134/134 48/135/135 46/136/136
f 44/137/137 43/138/138 47/139/139 48/140/140
f 43/141/141 41/142/142 45/143/143 47/144/144
f 49/145/145 51/146/146 52/147/147 50/148/148
f 53/149/149 54/150/150 56/151/151 55/152/152
f 49/153/153 50/154/154 54/155/155 53/156/156
f 50/157/157 52/158/158 56/159/159 54/160/160
f 52/161/161 51/162/162 55/163/163 56/164/164
f 51/165/165 49/166/166 53/167/167 55/168/168
f 57/169/169 59/170/170 60/171/171 58/172/172
f 61/173/173 62/174/174 64/175/175 63/176/176
f 57/177/177 58/178/178 62/179/179 61/180/180
f 58/181/181 60/182/182 64/183/183 62/184/184
f 60/185/185 59/186/186 63/187/187 64/188/188
f 59/189/189 57/190/190 61/191/191 63/192/192
